<svg xmlns="http://www.w3.org/2000/svg" viewBox="157.6 393.6 612 612">
    <circle fill="#60BB4F" cx="463.6" cy="699.6" r="306"/>
    <path fill="#FFF" d="M518.5 831.7H348.1c-37.6-.1-68-30.5-68.1-68.1V627.3c.1-37.6 30.5-68 68.1-68.1h221.4c37.6.1 68 30.5 68.1 68.1v51.1c0 9.4-7.6 17-17 17s-17-7.6-17-17v-51.1c-.1-18.8-15.3-34-34.1-34.1H348.1c-18.8.1-34 15.3-34 34.1v136.3c.1 18.8 15.3 34 34.1 34.1h170.3c9.4 0 17 7.6 17 17s-7.6 17-17 17z"/>
    <path fill="#FFF" d="M348.1 780.6c-5.2-.5-10.1-2.9-13.6-6.8-5.3-7.6-3.3-18 4.3-23.3.3-.2.6-.4.8-.5l51.1-34.1c5.8-3.4 13-3.4 18.7 0l39.2 25.5 57.9-57.9c6.3-6.6 16.7-6.8 23.3-.6l.6.6 17.1 17c6.6 6.6 6.6 17.3 0 23.9-6.6 6.6-17.3 6.6-23.9 0l-5.1-5.1-56.2 56.2c-6.1 5.6-15.3 6.4-22.1 1.7L399.3 750l-40.9 27.2c-3.2 1.9-6.7 3.1-10.3 3.4z"/>
    <circle fill="#FFF" cx="373.7" cy="652.9" r="25.5"/>
    <path fill="#FFF" d="M671.8 797.6H569.6c-8.9.5-16.5-6.2-17-15.1v-1.9c-.5-8.9 6.2-16.5 15.1-17h104.1c8.9-.5 16.5 6.2 17 15.1v1.9c.5 8.9-6.2 16.5-15.1 17-.7.1-1.3.1-1.9 0z"/>
    <path fill="#FFF" d="M620.7 848.7c-8.9.5-16.5-6.2-17-15.1V729.5c0-9.4 7.6-17 17-17s17 7.6 17 17v102.2c.5 8.9-6.2 16.5-15.1 17-.7.1-1.3.1-1.9 0z"/>
</svg>
