<svg xmlns="http://www.w3.org/2000/svg" viewBox="168 404 612 612">
    <circle fill="#734FA0" cx="474" cy="710" r="306"/>
    <path fill="#FFF" d="M570.2 677.9H506v-64.1c1-16.7-11.7-31.1-28.4-32.1-1.2-.1-2.5-.1-3.7 0-16.7-1-31.1 11.7-32.1 28.4-.1 1.3-.1 2.5 0 3.8V678h-64c-16.7-1-31.1 11.7-32.1 28.4-.1 1.2-.1 2.5 0 3.7-1 16.7 11.7 31.1 28.4 32.1 1.3.1 2.5.1 3.8 0H442v64.2c-1 16.7 11.7 31.1 28.4 32.1 1.3.1 2.5.1 3.8 0 16.7 1 31.1-11.7 32.1-28.4.1-1.3.1-2.5 0-3.8v-64.2h64.2c16.7 1 31.1-11.7 32.1-28.4.1-1.3.1-2.5 0-3.8 1-16.7-11.8-31.1-28.5-32-1.4-.1-2.6-.1-3.9 0z"/>
</svg>
