<svg xmlns="http://www.w3.org/2000/svg" viewBox="-59.6 562.2 13.1 13.1">
    <circle fill="#F86524" cx="-53" cy="568.8" r="6.6"/>
    <g fill="#FFF">
        <path d="M-51.782 571.193l-3.606-3.606c-.283-.283-.354-.778-.07-1.203l.07-.07c.283-.283.778-.354 1.202-.07l.07.07 3.607 3.606c.283.283.353.778.07 1.202l-.07.07a.896.896 0 0 1-1.273 0c.07.072 0 0 0 0z"/>
        <path d="M-55.388 569.99l3.606-3.606c.283-.282.778-.353 1.202-.07l.07.07c.284.283.354.778.072 1.203l-.071.07-3.606 3.607c-.283.282-.778.353-1.202.07l-.071-.07a.896.896 0 0 1 0-1.273c-.07.07 0 0 0 0z"/>
    </g>
</svg>
