<svg xmlns="http://www.w3.org/2000/svg" viewBox="151 470 612 612.1">
    <g transform="translate(-684 -85)" fill="#939393">
        <path d="M1018.6 1167c-5.3.5-10.6-.6-15.3-3.1-9.6-5.9-15.4-16.3-15.3-27.5v-91.8h-30.6c-67.5-.2-122.2-54.9-122.4-122.4V677.4c.2-67.5 54.9-122.2 122.4-122.4h367.2c67.5.2 122.2 54.9 122.4 122.4v244.8c-.2 67.5-54.9 122.2-122.4 122.4H1242l-208.1 119.3c-4.7 2.5-10 3.6-15.3 3.1zm-61.2-550.8c-33.8.1-61.1 27.4-61.2 61.2v244.8c.1 33.8 27.4 61.1 61.2 61.2h61.2c15.9-1 29.6 11.2 30.6 27.1.1 1.2.1 2.3 0 3.5v70.4l168.3-94.9c3.7-4.5 9.5-6.9 15.3-6.1h91.8c33.8-.1 61.1-27.4 61.2-61.2V677.4c-.1-33.8-27.4-61.1-61.2-61.2H957.4z"/>
        <circle cx="1049.2" cy="799.8" r="30.6"/>
        <circle cx="1141" cy="799.8" r="30.6"/>
        <circle cx="1232.8" cy="799.8" r="30.6"/>
    </g>
</svg>
