<svg xmlns="http://www.w3.org/2000/svg" viewBox="157.6 393.6 612 612">
    <circle fill="#F89B24" cx="463.6" cy="699.6" r="306"/>
    <path d="M423.2 695.7h-54c-19.8.3-36.2-15.5-36.5-35.3v-55.2c-.3-19.8 15.5-36.2 35.3-36.5h55.2c19.8-.3 36.2 15.5 36.5 35.3v55.2c.3 19.8-15.5 36.2-35.3 36.5h-1.2zm-53.9-95.2c-2.3-.3-4.4 1.3-4.8 3.6-.1.4-.1.8 0 1.2v54c-.3 2.3 1.3 4.4 3.6 4.8.4.1.8.1 1.2 0h54c2.3.3 4.4-1.3 4.8-3.6.1-.4.1-.8 0-1.2v-54c.3-2.3-1.3-4.4-3.6-4.8-.4-.1-.8-.1-1.2 0h-54zM566 695.7h-54c-19.8.3-36.2-15.5-36.5-35.3v-55.2c-.3-19.8 15.5-36.2 35.3-36.5H566c19.8-.3 36.2 15.5 36.5 35.3v55.2c.3 19.8-15.5 36.2-35.3 36.5H566zm-53.9-95.2c-2.3-.3-4.4 1.3-4.8 3.6-.1.4-.1.8 0 1.2v54c-.3 2.3 1.3 4.4 3.6 4.8.4.1.8.1 1.2 0h54c2.3.3 4.4-1.3 4.8-3.6.1-.4.1-.8 0-1.2v-54c.3-2.3-1.3-4.4-3.6-4.8-.4-.1-.8-.1-1.2 0h-54zm-88.9 238h-54c-19.8.3-36.2-15.5-36.5-35.3V748c-.3-19.8 15.5-36.2 35.3-36.5h55.2c19.8-.3 36.2 15.5 36.5 35.3V802c.3 19.8-15.5 36.2-35.3 36.5-.4.1-.8.1-1.2 0zm-53.9-95.2c-2.3-.3-4.4 1.3-4.8 3.6-.1.4-.1.8 0 1.2v54c-.3 2.3 1.3 4.4 3.6 4.8.4.1.8.1 1.2 0h54c2.3.3 4.4-1.3 4.8-3.6.1-.4.1-.8 0-1.2v-54c.3-2.3-1.3-4.4-3.6-4.8-.4-.1-.8-.1-1.2 0h-54zM566 838.5h-54c-19.8.3-36.2-15.5-36.5-35.3V748c-.3-19.8 15.5-36.2 35.3-36.5H566c19.8-.3 36.2 15.5 36.5 35.3V802c.3 19.8-15.5 36.2-35.3 36.5-.4.1-.8.1-1.2 0zm-53.9-95.2c-2.3-.3-4.4 1.3-4.8 3.6-.1.4-.1.8 0 1.2v54c-.3 2.3 1.3 4.4 3.6 4.8.4.1.8.1 1.2 0h54c2.3.3 4.4-1.3 4.8-3.6.1-.4.1-.8 0-1.2v-54c.3-2.3-1.3-4.4-3.6-4.8-.4-.1-.8-.1-1.2 0h-54z" fill="#FFF"/>
</svg>
