<svg xmlns="http://www.w3.org/2000/svg" viewBox="64.8 595.9 608.7 530.7">
    <path fill="#2B2C2C" d="M369 1126.4c-8.1-.8-15.9-3.4-22.9-7.6-80.8-57.8-155-124.3-221.2-198.3-47.6-54.3-68.5-127-57-198.3 12.3-47.8 46.1-87.2 91.3-106.8 69.7-32.9 152.3-20.9 209.8 30.5 57.6-50.7 139.1-64 209.8-34.3 45.4 19.4 79.2 58.9 91.3 106.8 12 71.4-9.1 144.3-57.2 198.3-67.1 73.1-141.2 139.6-221.2 198.3-4.5 8-13.5 12.5-22.7 11.4zM239.3 672.5c-15.9.2-31.6 4.1-45.8 11.4-25.6 8.7-44.6 30.6-49.6 57.2-5.3 48.4 9.9 96.8 41.9 133.5 56.2 61 117.4 117.2 183.1 167.8 67.3-48.7 128.8-105 183.1-167.8 31.1-37.2 46.2-85.2 41.9-133.5-8.5-24.7-26.3-45.2-49.6-57.2-52.1-23.8-113.7-5.9-145 42-12.1 17.9-36.5 22.6-54.4 10.5-4.1-2.8-7.7-6.3-10.5-10.5-19.4-33.8-55.9-54.3-95.1-53.4z"/>
</svg>
