<svg xmlns="http://www.w3.org/2000/svg" viewBox="0 0 315.1 40.8">
    <path fill="#575756" d="M112.4 24.2h-7.5c-3.3 0-4.5-1.7-4.5-3.2 0-1.6 1.2-3.2 4.5-3.2h7.5v6.4zM55.7 23v-5.3h7.7c1.8 0 3.8.5 3.8 2.6s-2 2.7-3.8 2.7h-7.7zm0 10.2v-5.5h8c2.7 0 4.3.7 4.3 2.8 0 2.1-1.6 2.7-4.3 2.7h-8zm81.8-5.1h10.2c3.1 0 4 1 4 2.2 0 2-2.2 2.8-6 2.8-4.3 0-10.1-1.1-14.3-2.2l-1.2 6.8c4.8 1.4 10.4 2.8 18.4 2.8 10.1 0 20.8-2.3 20.8-8.7 0-4.4-5-6.3-9.3-6.6V25c3.4-.6 6.9-2.9 6.9-6.4 0-5.8-8.5-8.1-17.3-8.1-6.4 0-13.4 1.3-18.2 2.6l1 6.6c4.2-1 9.5-2.1 13.5-2.1 3.5 0 5.3.7 5.3 2.5 0 1.2-.7 2.2-3.5 2.2h-10.4l.1 5.8zm104.1 5.2c-3.6 0-8.7-1.9-8.7-7.5 0-6 5-7.7 8.7-7.7 3.7 0 8.7 1.7 8.7 7.7 0 5.6-5.1 7.5-8.7 7.5M37 21.3v-8.1c-4.1-1.7-8.8-2.7-14.4-2.7C11.7 10.4 0 14.4 0 25.7c0 10.9 11.7 15 22.8 15.1 5.3 0 10.4-.9 14.2-2.5v-8.1c-3.2 1.3-6.3 2-9.7 2-4.8 0-10-1.5-10-6.4 0-4.7 4.5-6.5 9.4-6.5 3.1-.1 6.9.7 10.3 2m134.5 18.1h16.1V29.2h10.9v10.2h16.1V12h-16.1v9.5h-10.9V12h-16.1v27.4zm111.1 0l16.7-13.7v13.7h15.8V12h-14l-16.7 13.7V12h-15.7v27.4h13.9zm-181.8-.1l5.8-9.2h5.8v9.2h15.5V11.9c-6.6-.7-16-.9-18.9-.9-12.5 0-24.2.8-24.2 10 0 4 3.6 6.4 7.6 7.3l-8.4 11h16.8zm-60.5 0c7.5.6 13.8 1 20.8 1 10.1 0 23.3-.5 23.3-8.2 0-4.5-5.2-6.8-9.6-6.8V25c4.3-.5 7.7-3.3 7.7-6.6 0-6.8-11.2-7.4-21.8-7.4-7 0-12.6.2-20.4.9v27.4zm201.3-28.8c-11.1 0-25.3 3.8-25.3 15.3 0 11.2 14.4 15 25.3 15.1 10.9 0 25.3-3.8 25.3-15 0-11.6-14.2-15.4-25.3-15.4"/>
    <path fill="#F59B02" d="M298.9 9.6L287.3 0v19.2l11.6-9.6z"/>
</svg>
